<svg width="30" height="30" viewBox="0 0 30 30" fill="none" xmlns="http://www.w3.org/2000/svg">
<g clipPath="url(#clip0_2009_1141)">
<path d="M1.68221 -0.00878906H28.2755C29.1769 -0.00878906 29.9889 0.80323 29.9889 1.70467V28.2979C29.9889 29.1994 29.1769 30.0114 28.2755 30.0114H1.68221C0.780769 30.0114 -0.03125 29.1994 -0.03125 28.2979V1.70467C-0.03125 0.80323 0.780769 -0.00878906 1.68221 -0.00878906ZM21.2875 16.8475H25.4341L25.6144 12.8811H21.2875V9.95179C21.2875 8.82535 21.5125 8.19361 22.9548 8.19361H25.4788L25.5697 4.49698C25.5697 4.49698 24.4433 4.31669 22.8207 4.31669C18.8543 4.31669 17.0962 6.79602 17.0962 9.45563V12.8811H14.1668V16.8475H17.0962V27.8451H21.2875V16.8475Z" fill="white"/>
</g>
<defs>
<clipPath id="clip0_2009_1141">
<rect width="30" height="30" fill="white"/>
</clipPath>
</defs>
</svg>
