<svg width="30" height="30" viewBox="0 0 30 30" fill="none" xmlns="http://www.w3.org/2000/svg">
<path d="M8.9093 15C8.9093 18.3593 11.6489 21.0907 15 21.0907C18.3511 21.0907 21.0907 18.3593 21.0907 15C21.0907 11.6408 18.3592 8.90934 15 8.90934C11.6407 8.90934 8.9093 11.6408 8.9093 15Z" fill="white"/>
<path fillRule="evenodd" clipRule="evenodd" d="M25.7708 29.2442C27.3771 28.6001 28.6083 27.3689 29.2442 25.7709C30.0625 23.7148 30.0169 19.2173 29.9874 16.3019C29.9825 15.8183 29.978 15.3782 29.978 15C29.978 14.6218 29.9825 14.1818 29.9874 13.6983C30.0169 10.7845 30.0624 6.29223 29.2442 4.22923C28.6001 2.62299 27.3689 1.39175 25.7708 0.755781C23.7083 -0.0580137 19.1889 -0.0146686 16.2744 0.0132853C15.8016 0.0178199 15.371 0.0219493 15 0.0219493C14.6218 0.0219493 14.1818 0.0174924 13.6984 0.0125951C10.7845 -0.016924 6.2922 -0.0624338 4.22918 0.755781C2.62293 1.39991 1.39175 2.63114 0.755772 4.22923C-0.0580194 6.29176 -0.0146694 10.811 0.0132879 13.7256C0.0178232 14.1984 0.0219536 14.629 0.0219536 15C0.0219536 15.3783 0.0174957 15.8183 0.0125975 16.3017C-0.0169254 19.2156 -0.0624399 23.7078 0.755772 25.7709C1.3999 27.3771 2.63108 28.6083 4.22918 29.2442C6.29173 30.058 10.811 30.0147 13.7256 29.9867C14.1984 29.9822 14.629 29.9781 15 29.9781C15.3782 29.9781 15.8182 29.9825 16.3016 29.9874C19.2155 30.0169 23.7078 30.0624 25.7708 29.2442ZM5.63158 15C5.63158 9.8144 9.81434 5.63164 15 5.63164C20.1856 5.63164 24.3684 9.8144 24.3684 15C24.3684 20.1857 20.1856 24.3684 15 24.3684C9.81434 24.3684 5.63158 20.1857 5.63158 15ZM24.7516 7.43357C25.9583 7.43357 26.9368 6.46328 26.9368 5.24841C26.9368 4.04169 25.9583 3.06326 24.7516 3.06326C23.5449 3.06326 22.5665 4.04169 22.5665 5.24841C22.5665 6.45513 23.5367 7.43357 24.7516 7.43357Z" fill="white"/>
</svg>
