<svg width="43" height="30" viewBox="0 0 43 30" fill="none" xmlns="http://www.w3.org/2000/svg">
<path d="M41.514 4.69398C41.0264 2.84633 39.5896 1.39117 37.7654 0.897344C34.4589 0 21.2 0 21.2 0C21.2 0 7.94122 0 4.6346 0.897344C2.81037 1.39125 1.37362 2.84633 0.885989 4.69398C0 8.04297 0 15.0303 0 15.0303C0 15.0303 0 22.0177 0.885989 25.3666C1.37362 27.2143 2.81037 28.6088 4.6346 29.1027C7.94122 30 21.2 30 21.2 30C21.2 30 34.4588 30 37.7654 29.1027C39.5896 28.6088 41.0264 27.2143 41.514 25.3666C42.4 22.0177 42.4 15.0303 42.4 15.0303C42.4 15.0303 42.4 8.04297 41.514 4.69398ZM16.8636 21.3743V8.68633L27.9454 15.0305L16.8636 21.3743Z" fill="white"/>
</svg>
